<?xml version="1.0" encoding="utf-8"?>
<!-- Generator: Adobe Illustrator 19.0.0, SVG Export Plug-In . SVG Version: 6.00 Build 0)  -->
<svg version="1.1" id="Layer_1" xmlns="http://www.w3.org/2000/svg" xmlns:xlink="http://www.w3.org/1999/xlink" x="0px" y="0px"
	 viewBox="0 0 432 432" style="enable-background:new 0 0 432 432;" xml:space="preserve">
<style type="text/css">
	.st0{fill:url(#XMLID_2_);}
	.st1{fill:url(#XMLID_5_);}
</style>
<g id="XMLID_4_">
	<linearGradient id="XMLID_2_" gradientUnits="userSpaceOnUse" x1="159.8035" y1="374" x2="159.8035" y2="64">
		<stop  offset="0" style="stop-color:#E90075"/>
		<stop  offset="1" style="stop-color:#FF6300"/>
	</linearGradient>
	<path id="XMLID_15_" class="st0" d="M44.5,370.7c-0.5,1.8,0.7,3.3,2.6,3.3h70.6c1.9,0,3.8-1.5,4.2-3.3L159,221.9
		c0.5-1.8,1.2-1.8,1.6,0l37.1,148.8c0.5,1.8,2.4,3.3,4.2,3.3h70.6c1.9,0,3-1.5,2.6-3.3L199.3,67.3c-0.5-1.8-2.4-3.3-4.2-3.3h-70.6
		c-1.9,0-3.8,1.5-4.2,3.3L44.5,370.7z"/>
</g>
<g id="XMLID_3_">
	<linearGradient id="XMLID_5_" gradientUnits="userSpaceOnUse" x1="329.9769" y1="374.4399" x2="329.9769" y2="63">
		<stop  offset="0" style="stop-color:#E90075"/>
		<stop  offset="1" style="stop-color:#FF6300"/>
	</linearGradient>
	<path id="XMLID_13_" class="st1" d="M314.2,374.4c-1.9,0-3.8-1.5-4.2-3.3L272.9,222c-0.5-1.8-0.5-4.8,0-6.6L310,66.3
		c0.5-1.8,2.4-3.3,4.2-3.3h70.6c1.9,0,2.9,1.5,2.4,3.2l-46.4,148.4c-0.6,1.8-0.6,4.7,0,6.5l46.4,149.6c0.6,1.8-0.5,3.3-2.4,3.3
		L314.2,374.4z"/>
</g>
</svg>
